<svg width="250" height="80" viewBox="0 0 250 80" fill="none" xmlns="http://www.w3.org/2000/svg">
<g clip-path="url(#clip0_36_32)">
<path d="M50.2713 43.5677L62.7251 55.9375M32.836 41.0938C32.836 45.0306 34.4105 48.8061 37.2132 51.5898C40.0158 54.3736 43.817 55.9375 47.7806 55.9375C51.7441 55.9375 55.5453 54.3736 58.3481 51.5898C61.1507 48.8061 62.7251 45.0306 62.7251 41.0938C62.7251 37.1569 61.1507 33.3814 58.3481 30.5977C55.5453 27.8139 51.7441 26.25 47.7806 26.25C43.817 26.25 40.0158 27.8139 37.2132 30.5977C34.4105 33.3814 32.836 37.1569 32.836 41.0938Z" stroke="white" stroke-width="2" stroke-linecap="round" stroke-linejoin="round"/>
<path d="M77.1403 28.4209V41.6875H76.1658V28.4209H77.1403ZM86.2453 28.4209L79.9248 34.7017L86.468 41.6875H85.0108L78.9503 35.0263V34.4511L84.9088 28.4209H86.2453ZM96.9464 28.4209V29.2558H89.206V34.544H96.6304V35.3789H89.206V40.8526H97.0759V41.6875H88.2315V28.4209H96.9464ZM98.6548 28.4209H99.8143L104.111 36.1211L108.539 28.4209H109.606L104.632 37.0489V41.6875H103.657V37.0489L98.6548 28.4209ZM111.416 41.6875V28.4209H112.668L121.532 40.0362V28.4209H122.415V41.6875H121.626L112.298 29.5156V41.6875H111.416ZM130.035 40.8526C133.716 40.8526 135.556 38.7991 135.556 34.6924C135.556 31.068 133.716 29.2558 130.035 29.2558H126.368V40.8526H130.035ZM125.393 41.6875V28.4209H130.127C134.459 28.4209 136.624 30.5113 136.624 34.6924C136.624 39.3558 134.428 41.6875 130.035 41.6875H125.393ZM147.752 28.4209V29.2558H140.011V34.544H147.436V35.3789H140.011V40.8526H147.882V41.6875H139.037V28.4209H147.752ZM154.686 35.0542L149.46 28.4209H150.62L155.261 34.3213L159.901 28.4209H161.062L155.845 35.0542L161.062 41.6875H159.901L155.261 35.7871L150.62 41.6875H149.46L154.686 35.0542ZM167.048 36.3994V37.2344H162.408V36.3994H167.048ZM169.461 41.2237V40.2031C170.853 40.698 172.388 40.9453 174.064 40.9453C176.843 40.9453 178.232 39.8939 178.232 37.7911C178.232 36.2448 177.329 35.4716 175.522 35.4716H172.793C170.324 35.4716 169.09 34.3584 169.09 32.1318C169.09 29.596 170.899 28.3281 174.519 28.3281C176.004 28.3281 177.443 28.5136 178.835 28.8848V29.8125C177.443 29.3795 176.004 29.1631 174.519 29.1631C171.549 29.1631 170.064 30.1527 170.064 32.1318C170.064 33.7399 170.974 34.544 172.793 34.544H175.522C177.978 34.544 179.206 35.6263 179.206 37.7911C179.206 40.4505 177.493 41.7802 174.064 41.7802C172.388 41.7802 170.853 41.5948 169.461 41.2237ZM181.591 41.6875H180.552L186.557 28.4209H187.717L193.749 41.6875H192.59L190.623 37.2344H184.673L184.961 36.3994H190.26L187.076 29.1817L181.591 41.6875ZM195.439 41.6875H194.399L200.405 28.4209H201.565L207.598 41.6875H206.437L204.47 37.2344H198.52L198.808 36.3994H204.108L200.925 29.1817L195.439 41.6875ZM209.315 41.2237V40.2031C210.707 40.698 212.242 40.9453 213.918 40.9453C216.697 40.9453 218.086 39.8939 218.086 37.7911C218.086 36.2448 217.182 35.4716 215.376 35.4716H212.647C210.178 35.4716 208.944 34.3584 208.944 32.1318C208.944 29.596 210.753 28.3281 214.373 28.3281C215.858 28.3281 217.297 28.5136 218.689 28.8848V29.8125C217.297 29.3795 215.858 29.1631 214.373 29.1631C211.403 29.1631 209.918 30.1527 209.918 32.1318C209.918 33.7399 210.827 34.544 212.647 34.544H215.376C217.831 34.544 219.06 35.6263 219.06 37.7911C219.06 40.4505 217.345 41.7802 213.918 41.7802C212.242 41.7802 210.707 41.5948 209.315 41.2237Z" fill="white"/>
<path d="M79.2427 53.04H76.0779L75.4411 54.75H74.9754L77.4274 48.233H77.9026L80.3452 54.75H79.8795L79.2427 53.04ZM79.1096 52.679L77.665 48.7935L76.2109 52.679H79.1096ZM83.1485 52.166C83.1485 51.634 83.253 51.1685 83.4621 50.7695C83.6775 50.3705 83.9721 50.0633 84.346 49.848C84.7261 49.6327 85.1569 49.525 85.6385 49.525C86.1643 49.525 86.6205 49.658 87.0071 49.924C87.3936 50.1837 87.666 50.5225 87.8244 50.9405V47.72H88.2521V54.75H87.8244V53.382C87.6724 53.8063 87.4063 54.1547 87.0261 54.427C86.646 54.693 86.1834 54.826 85.6385 54.826C85.1569 54.826 84.7261 54.7183 84.346 54.503C83.9721 54.2813 83.6775 53.971 83.4621 53.572C83.253 53.1667 83.1485 52.698 83.1485 52.166ZM87.8244 52.166C87.8244 51.7163 87.7294 51.3205 87.5393 50.9785C87.3555 50.6302 87.1021 50.3642 86.779 50.1805C86.4559 49.9905 86.0947 49.8955 85.6956 49.8955C85.2774 49.8955 84.9098 49.9873 84.5931 50.171C84.2762 50.3483 84.0291 50.608 83.8518 50.95C83.6743 51.292 83.5857 51.6973 83.5857 52.166C83.5857 52.6347 83.6743 53.04 83.8518 53.382C84.0291 53.724 84.2762 53.9868 84.5931 54.1705C84.9162 54.3542 85.2837 54.446 85.6956 54.446C86.0947 54.446 86.4559 54.3542 86.779 54.1705C87.1084 53.9805 87.3651 53.7145 87.5488 53.3725C87.7325 53.0242 87.8244 52.622 87.8244 52.166ZM97.9063 49.487C98.4955 49.487 98.9779 49.677 99.3509 50.057C99.7251 50.4307 99.9116 50.988 99.9116 51.729V54.75H99.4935V51.7575C99.4935 51.1432 99.345 50.6745 99.0468 50.3515C98.7557 50.0222 98.353 49.8575 97.8398 49.8575C97.3075 49.8575 96.8799 50.0412 96.5567 50.4085C96.2336 50.7758 96.072 51.3078 96.072 52.0045V54.75H95.6543V51.7575C95.6543 51.1432 95.5053 50.6745 95.2076 50.3515C94.9161 50.0222 94.5138 49.8575 94.0006 49.8575C93.4684 49.8575 93.0407 50.0412 92.7176 50.4085C92.3945 50.7758 92.2329 51.3078 92.2329 52.0045V54.75H91.8052V49.5915H92.2329V50.7125C92.3785 50.3072 92.613 50.0032 92.9362 49.8005C93.2656 49.5915 93.6426 49.487 94.0671 49.487C94.5359 49.487 94.9383 49.6105 95.2742 49.8575C95.6163 50.0982 95.8511 50.456 95.977 50.931C96.0982 50.456 96.3322 50.0982 96.6803 49.8575C97.0295 49.6105 97.4382 49.487 97.9063 49.487ZM103.644 48.442C103.543 48.442 103.458 48.4103 103.388 48.347C103.318 48.2773 103.283 48.1855 103.283 48.0715C103.283 47.9638 103.318 47.8752 103.388 47.8055C103.458 47.7358 103.543 47.701 103.644 47.701C103.745 47.701 103.831 47.7358 103.901 47.8055C103.971 47.8752 104.005 47.9638 104.005 48.0715C104.005 48.1855 103.971 48.2773 103.901 48.347C103.831 48.4103 103.745 48.442 103.644 48.442ZM103.853 49.5915V54.75H103.426V49.5915H103.853ZM109.746 49.487C110.36 49.487 110.86 49.677 111.248 50.057C111.634 50.4307 111.827 50.988 111.827 51.729V54.75H111.409V51.7575C111.409 51.1432 111.253 50.6745 110.943 50.3515C110.632 50.0222 110.212 49.8575 109.679 49.8575C109.121 49.8575 108.674 50.0348 108.339 50.3895C108.009 50.7442 107.845 51.2698 107.845 51.9665V54.75H107.417V49.5915H107.845V50.684C107.99 50.2977 108.231 50.0032 108.567 49.8005C108.91 49.5915 109.302 49.487 109.746 49.487ZM120.44 50.95C120.585 50.532 120.849 50.19 121.229 49.924C121.615 49.658 122.081 49.525 122.626 49.525C123.107 49.525 123.535 49.6327 123.909 49.848C124.289 50.0633 124.584 50.3705 124.793 50.7695C125.008 51.1685 125.116 51.634 125.116 52.166C125.116 52.698 125.008 53.1667 124.793 53.572C124.584 53.971 124.289 54.2813 123.909 54.503C123.535 54.7183 123.107 54.826 122.626 54.826C122.087 54.826 121.625 54.693 121.239 54.427C120.858 54.1547 120.592 53.8127 120.44 53.401V57.182H120.013V49.5915H120.44V50.95ZM124.679 52.166C124.679 51.6973 124.59 51.292 124.413 50.95C124.235 50.608 123.985 50.3483 123.662 50.171C123.345 49.9873 122.978 49.8955 122.56 49.8955C122.16 49.8955 121.799 49.9905 121.476 50.1805C121.153 50.3642 120.899 50.6302 120.716 50.9785C120.532 51.3205 120.44 51.7163 120.44 52.166C120.44 52.622 120.532 53.0242 120.716 53.3725C120.899 53.7145 121.153 53.9805 121.476 54.1705C121.799 54.3542 122.16 54.446 122.56 54.446C122.978 54.446 123.345 54.3542 123.662 54.1705C123.985 53.9868 124.235 53.724 124.413 53.382C124.59 53.04 124.679 52.6347 124.679 52.166ZM128.137 52.166C128.137 51.634 128.242 51.1685 128.451 50.7695C128.666 50.3705 128.961 50.0633 129.335 49.848C129.715 49.6327 130.145 49.525 130.627 49.525C131.171 49.525 131.635 49.658 132.015 49.924C132.395 50.19 132.661 50.5288 132.813 50.9405V49.5915H133.241V54.75H132.813V53.3915C132.661 53.8095 132.392 54.1547 132.005 54.427C131.625 54.693 131.166 54.826 130.627 54.826C130.145 54.826 129.715 54.7183 129.335 54.503C128.961 54.2813 128.666 53.971 128.451 53.572C128.242 53.1667 128.137 52.698 128.137 52.166ZM132.813 52.166C132.813 51.7163 132.718 51.3205 132.528 50.9785C132.344 50.6302 132.091 50.3642 131.768 50.1805C131.445 49.9905 131.084 49.8955 130.684 49.8955C130.266 49.8955 129.898 49.9873 129.582 50.171C129.265 50.3483 129.018 50.608 128.841 50.95C128.662 51.292 128.575 51.6973 128.575 52.166C128.575 52.6347 128.662 53.04 128.841 53.382C129.018 53.724 129.265 53.9868 129.582 54.1705C129.905 54.3542 130.272 54.446 130.684 54.446C131.084 54.446 131.445 54.3542 131.768 54.1705C132.097 53.9805 132.354 53.7145 132.538 53.3725C132.721 53.0242 132.813 52.622 132.813 52.166ZM139.122 49.487C139.737 49.487 140.237 49.677 140.623 50.057C141.01 50.4307 141.203 50.988 141.203 51.729V54.75H140.785V51.7575C140.785 51.1432 140.63 50.6745 140.319 50.3515C140.009 50.0222 139.587 49.8575 139.055 49.8575C138.498 49.8575 138.051 50.0348 137.715 50.3895C137.386 50.7442 137.221 51.2698 137.221 51.9665V54.75H136.793V49.5915H137.221V50.684C137.367 50.2977 137.608 50.0032 137.943 49.8005C138.285 49.5915 138.678 49.487 139.122 49.487ZM149.359 51.824C149.359 52.052 149.351 52.223 149.34 52.337H144.882C144.894 52.7993 144.996 53.1888 145.186 53.5055C145.376 53.8222 145.626 54.0597 145.937 54.218C146.247 54.3763 146.586 54.4555 146.954 54.4555C147.46 54.4555 147.885 54.332 148.228 54.085C148.57 53.8317 148.785 53.4897 148.874 53.059H149.321C149.218 53.5847 148.959 54.0122 148.541 54.3415C148.123 54.6645 147.593 54.826 146.954 54.826C146.472 54.826 146.042 54.7183 145.662 54.503C145.281 54.2877 144.983 53.9805 144.768 53.5815C144.552 53.1762 144.445 52.7043 144.445 52.166C144.445 51.6277 144.55 51.159 144.759 50.76C144.974 50.361 145.272 50.057 145.652 49.848C146.032 49.6327 146.466 49.525 146.954 49.525C147.448 49.525 147.876 49.6327 148.237 49.848C148.604 50.057 148.883 50.3388 149.073 50.6935C149.264 51.0418 149.359 51.4187 149.359 51.824ZM148.931 51.9855C148.95 51.5295 148.867 51.1432 148.684 50.8265C148.506 50.5098 148.262 50.2755 147.952 50.1235C147.641 49.9652 147.306 49.886 146.945 49.886C146.583 49.886 146.247 49.9652 145.937 50.1235C145.633 50.2755 145.382 50.5098 145.186 50.8265C144.996 51.1432 144.894 51.5295 144.882 51.9855H148.931ZM153.075 47.72V54.75H152.647V47.72H153.075ZM165.003 48.081V48.442H163.103V54.75H162.675V48.442H160.774V48.081H165.003ZM172.665 51.824C172.665 52.052 172.659 52.223 172.646 52.337H168.188C168.201 52.7993 168.302 53.1888 168.492 53.5055C168.683 53.8222 168.933 54.0597 169.243 54.218C169.555 54.3763 169.893 54.4555 170.26 54.4555C170.768 54.4555 171.192 54.332 171.534 54.085C171.876 53.8317 172.092 53.4897 172.18 53.059H172.627C172.526 53.5847 172.266 54.0122 171.847 54.3415C171.429 54.6645 170.901 54.826 170.26 54.826C169.779 54.826 169.348 54.7183 168.968 54.503C168.588 54.2877 168.291 53.9805 168.074 53.5815C167.859 53.1762 167.751 52.7043 167.751 52.166C167.751 51.6277 167.856 51.159 168.065 50.76C168.281 50.361 168.578 50.057 168.958 49.848C169.338 49.6327 169.773 49.525 170.26 49.525C170.754 49.525 171.182 49.6327 171.543 49.848C171.912 50.057 172.19 50.3388 172.38 50.6935C172.57 51.0418 172.665 51.4187 172.665 51.824ZM172.237 51.9855C172.256 51.5295 172.174 51.1432 171.99 50.8265C171.813 50.5098 171.569 50.2755 171.258 50.1235C170.948 49.9652 170.612 49.886 170.251 49.886C169.89 49.886 169.555 49.9652 169.243 50.1235C168.939 50.2755 168.69 50.5098 168.492 50.8265C168.302 51.1432 168.201 51.5295 168.188 51.9855H172.237ZM182.055 49.487C182.644 49.487 183.126 49.677 183.499 50.057C183.874 50.4307 184.06 50.988 184.06 51.729V54.75H183.642V51.7575C183.642 51.1432 183.493 50.6745 183.195 50.3515C182.904 50.0222 182.501 49.8575 181.988 49.8575C181.456 49.8575 181.028 50.0412 180.705 50.4085C180.382 50.7758 180.22 51.3078 180.22 52.0045V54.75H179.802V51.7575C179.802 51.1432 179.654 50.6745 179.356 50.3515C179.064 50.0222 178.662 49.8575 178.149 49.8575C177.616 49.8575 177.189 50.0412 176.866 50.4085C176.542 50.7758 176.381 51.3078 176.381 52.0045V54.75H175.953V49.5915H176.381V50.7125C176.527 50.3072 176.761 50.0032 177.084 49.8005C177.414 49.5915 177.791 49.487 178.215 49.487C178.684 49.487 179.087 49.6105 179.422 49.8575C179.764 50.0982 179.999 50.456 180.125 50.931C180.247 50.456 180.481 50.0982 180.829 49.8575C181.178 49.6105 181.587 49.487 182.055 49.487ZM188.002 50.95C188.147 50.532 188.41 50.19 188.791 49.924C189.177 49.658 189.642 49.525 190.188 49.525C190.669 49.525 191.097 49.6327 191.471 49.848C191.851 50.0633 192.146 50.3705 192.355 50.7695C192.57 51.1685 192.678 51.634 192.678 52.166C192.678 52.698 192.57 53.1667 192.355 53.572C192.146 53.971 191.851 54.2813 191.471 54.503C191.097 54.7183 190.669 54.826 190.188 54.826C189.648 54.826 189.186 54.693 188.8 54.427C188.42 54.1547 188.154 53.8127 188.002 53.401V57.182H187.574V49.5915H188.002V50.95ZM192.241 52.166C192.241 51.6973 192.152 51.292 191.974 50.95C191.796 50.608 191.547 50.3483 191.224 50.171C190.906 49.9873 190.539 49.8955 190.121 49.8955C189.722 49.8955 189.361 49.9905 189.038 50.1805C188.715 50.3642 188.46 50.6302 188.277 50.9785C188.093 51.3205 188.002 51.7163 188.002 52.166C188.002 52.622 188.093 53.0242 188.277 53.3725C188.46 53.7145 188.715 53.9805 189.038 54.1705C189.361 54.3542 189.722 54.446 190.121 54.446C190.539 54.446 190.906 54.3542 191.224 54.1705C191.547 53.9868 191.796 53.724 191.974 53.382C192.152 53.04 192.241 52.6347 192.241 52.166ZM196.393 47.72V54.75H195.965V47.72H196.393ZM199.689 52.166C199.689 51.634 199.794 51.1685 200.003 50.7695C200.219 50.3705 200.514 50.0633 200.887 49.848C201.267 49.6327 201.698 49.525 202.179 49.525C202.725 49.525 203.187 49.658 203.567 49.924C203.947 50.19 204.213 50.5288 204.365 50.9405V49.5915H204.793V54.75H204.365V53.3915C204.213 53.8095 203.945 54.1547 203.557 54.427C203.177 54.693 202.719 54.826 202.179 54.826C201.698 54.826 201.267 54.7183 200.887 54.503C200.514 54.2813 200.219 53.971 200.003 53.572C199.794 53.1667 199.689 52.698 199.689 52.166ZM204.365 52.166C204.365 51.7163 204.27 51.3205 204.08 50.9785C203.897 50.6302 203.643 50.3642 203.32 50.1805C202.997 49.9905 202.636 49.8955 202.236 49.8955C201.818 49.8955 201.451 49.9873 201.134 50.171C200.818 50.3483 200.571 50.608 200.393 50.95C200.216 51.292 200.127 51.6973 200.127 52.166C200.127 52.6347 200.216 53.04 200.393 53.382C200.571 53.724 200.818 53.9868 201.134 54.1705C201.457 54.3542 201.825 54.446 202.236 54.446C202.636 54.446 202.997 54.3542 203.32 54.1705C203.65 53.9805 203.907 53.7145 204.09 53.3725C204.274 53.0242 204.365 52.622 204.365 52.166ZM208.983 49.962V53.3725C208.983 53.7525 209.053 54.0153 209.192 54.161C209.331 54.3003 209.578 54.37 209.933 54.37H210.513V54.75H209.867C209.417 54.75 209.084 54.6455 208.869 54.4365C208.66 54.2212 208.555 53.8665 208.555 53.3725V49.962H207.776V49.5915H208.555V48.2805H208.983V49.5915H210.513V49.962H208.983ZM218.285 51.824C218.285 52.052 218.278 52.223 218.266 52.337H213.809C213.821 52.7993 213.923 53.1888 214.113 53.5055C214.303 53.8222 214.552 54.0597 214.864 54.218C215.174 54.3763 215.512 54.4555 215.881 54.4555C216.387 54.4555 216.812 54.332 217.154 54.085C217.496 53.8317 217.711 53.4897 217.8 53.059H218.247C218.145 53.5847 217.886 54.0122 217.468 54.3415C217.05 54.6645 216.52 54.826 215.881 54.826C215.398 54.826 214.968 54.7183 214.588 54.503C214.208 54.2877 213.91 53.9805 213.695 53.5815C213.478 53.1762 213.372 52.7043 213.372 52.166C213.372 51.6277 213.476 51.159 213.685 50.76C213.9 50.361 214.198 50.057 214.579 49.848C214.959 49.6327 215.392 49.525 215.881 49.525C216.375 49.525 216.803 49.6327 217.164 49.848C217.531 50.057 217.81 50.3388 218 50.6935C218.19 51.0418 218.285 51.4187 218.285 51.824ZM217.857 51.9855C217.876 51.5295 217.793 51.1432 217.61 50.8265C217.432 50.5098 217.189 50.2755 216.879 50.1235C216.567 49.9652 216.232 49.886 215.871 49.886C215.51 49.886 215.174 49.9652 214.864 50.1235C214.56 50.2755 214.309 50.5098 214.113 50.8265C213.923 51.1432 213.821 51.5295 213.809 51.9855H217.857Z" fill="#D6D6D6"/>
</g>
<defs>
<clipPath id="clip0_36_32">
<rect width="250" height="80" fill="white"/>
</clipPath>
</defs>
</svg>
